<svg width="284" height="16" viewBox="0 0 284 16" fill="none" xmlns="http://www.w3.org/2000/svg">
<path d="M0.166667 8C0.166667 10.9455 2.55448 13.3333 5.5 13.3333C8.44552 13.3333 10.8333 10.9455 10.8333 8C10.8333 5.05448 8.44552 2.66667 5.5 2.66667C2.55448 2.66667 0.166667 5.05448 0.166667 8ZM283.207 8.70711C283.598 8.31658 283.598 7.68342 283.207 7.29289L276.843 0.928932C276.453 0.538408 275.819 0.538408 275.429 0.928932C275.038 1.31946 275.038 1.95262 275.429 2.34315L281.086 8L275.429 13.6569C275.038 14.0474 275.038 14.6805 275.429 15.0711C275.819 15.4616 276.453 15.4616 276.843 15.0711L283.207 8.70711ZM5.5 9H282.5V7H5.5V9Z" fill="white"/>
</svg>
