<svg width="29" height="28" viewBox="0 0 29 28" fill="none" xmlns="http://www.w3.org/2000/svg">
<mask id="path-1-outside-1_1004_639" maskUnits="userSpaceOnUse" x="0.782227" y="0" width="28" height="28" fill="black">
<rect fill="white" x="0.782227" width="28" height="28"/>
<path fill-rule="evenodd" clip-rule="evenodd" d="M8.78223 3C6.0208 3 3.78223 5.23858 3.78223 8V20C3.78223 22.7614 6.0208 25 8.78223 25H20.7822C23.5436 25 25.7822 22.7614 25.7822 20V8C25.7822 5.23858 23.5436 3 20.7822 3H8.78223ZM8.86122 14.2218C8.86122 11.0772 11.4105 8.52796 14.5551 8.52796C17.6997 8.52796 20.2489 11.0772 20.2489 14.2218C20.2489 17.3664 17.6997 19.9157 14.5551 19.9157C11.4105 19.9157 8.86122 17.3664 8.86122 14.2218ZM10.8591 14.2218C10.8591 16.263 12.5138 17.9178 14.5551 17.9178C16.5963 17.9178 18.2511 16.263 18.2511 14.2218C18.2511 12.1806 16.5963 10.5258 14.5551 10.5258C12.5138 10.5258 10.8591 12.1806 10.8591 14.2218ZM20.4739 9.63358C21.2087 9.63358 21.8044 9.03786 21.8044 8.303C21.8044 7.56815 21.2087 6.97246 20.4739 6.97246C19.739 6.97246 19.1433 7.56815 19.1433 8.303C19.1433 9.03786 19.739 9.63358 20.4739 9.63358Z"/>
</mask>
<path d="M6.78223 8C6.78223 6.89543 7.67766 6 8.78223 6V0C4.36395 0 0.782227 3.58172 0.782227 8H6.78223ZM6.78223 20V8H0.782227V20H6.78223ZM8.78223 22C7.67766 22 6.78223 21.1046 6.78223 20H0.782227C0.782227 24.4183 4.36395 28 8.78223 28V22ZM20.7822 22H8.78223V28H20.7822V22ZM22.7822 20C22.7822 21.1046 21.8868 22 20.7822 22V28C25.2005 28 28.7822 24.4183 28.7822 20H22.7822ZM22.7822 8V20H28.7822V8H22.7822ZM20.7822 6C21.8868 6 22.7822 6.89543 22.7822 8H28.7822C28.7822 3.58172 25.2005 0 20.7822 0V6ZM8.78223 6H20.7822V0H8.78223V6ZM14.5551 5.52796C9.75361 5.52796 5.86122 9.42034 5.86122 14.2218H11.8612C11.8612 12.7341 13.0673 11.528 14.5551 11.528V5.52796ZM23.2489 14.2218C23.2489 9.42034 19.3566 5.52796 14.5551 5.52796V11.528C16.0428 11.528 17.2489 12.734 17.2489 14.2218H23.2489ZM14.5551 22.9157C19.3565 22.9157 23.2489 19.0233 23.2489 14.2218H17.2489C17.2489 15.7096 16.0428 16.9157 14.5551 16.9157V22.9157ZM5.86122 14.2218C5.86122 19.0233 9.75361 22.9157 14.5551 22.9157V16.9157C13.0673 16.9157 11.8612 15.7096 11.8612 14.2218H5.86122ZM14.5551 14.9178C14.1707 14.9178 13.8591 14.6062 13.8591 14.2218H7.85906C7.85906 17.9199 10.857 20.9178 14.5551 20.9178V14.9178ZM15.2511 14.2218C15.2511 14.6062 14.9395 14.9178 14.5551 14.9178V20.9178C18.2532 20.9178 21.2511 17.9199 21.2511 14.2218H15.2511ZM14.5551 13.5258C14.9395 13.5258 15.2511 13.8374 15.2511 14.2218H21.2511C21.2511 10.5237 18.2532 7.52579 14.5551 7.52579V13.5258ZM13.8591 14.2218C13.8591 13.8374 14.1707 13.5258 14.5551 13.5258V7.52579C10.857 7.52579 7.85906 10.5237 7.85906 14.2218H13.8591ZM18.8044 8.303C18.8044 7.38113 19.5518 6.63358 20.4739 6.63358V12.6336C22.8657 12.6336 24.8044 10.6946 24.8044 8.303H18.8044ZM20.4739 9.97246C19.5519 9.97246 18.8044 9.225 18.8044 8.303H24.8044C24.8044 5.91129 22.8656 3.97246 20.4739 3.97246V9.97246ZM22.1433 8.303C22.1433 9.22513 21.3958 9.97246 20.4739 9.97246V3.97246C18.0823 3.97246 16.1433 5.91116 16.1433 8.303H22.1433ZM20.4739 6.63358C21.3959 6.63358 22.1433 7.381 22.1433 8.303H16.1433C16.1433 10.6947 18.0822 12.6336 20.4739 12.6336V6.63358Z" fill="#0D011E" mask="url(#path-1-outside-1_1004_639)"/>
</svg>
