<svg width="70" height="69" viewBox="0 0 70 69" fill="none" xmlns="http://www.w3.org/2000/svg">
<g opacity="0.4" clip-path="url(#clip0_1004_613)">
<path d="M69.1465 0H35.0964L2.58203 34.1926H34.894L35.0451 34.0387L69.1465 0Z" fill="url(#paint0_linear_1004_613)"/>
<path d="M69.1469 68.3855H0.761719H69.1469ZM35.0455 34.0391L34.8945 34.1929H35.1994L35.0455 34.0391Z" fill="url(#paint1_linear_1004_613)"/>
<path d="M35.0968 0H0.761719V36.1074V34.1926H2.58248L35.0968 0Z" fill="url(#paint2_linear_1004_613)"/>
<path d="M34.8945 34.1924H2.58248L0.761719 36.1072V68.385L34.8945 34.1924Z" fill="url(#paint3_linear_1004_613)"/>
<path d="M35.1994 34.1924H34.8945L0.761719 68.385H69.1469L35.1994 34.1924Z" fill="url(#paint4_linear_1004_613)"/>
<path d="M2.58248 34.1924H0.761719V36.1072L2.58248 34.1924Z" fill="url(#paint5_linear_1004_613)"/>
</g>
<defs>
<linearGradient id="paint0_linear_1004_613" x1="-11.4441" y1="62.4947" x2="52.1919" y2="-1.14136" gradientUnits="userSpaceOnUse">
<stop stop-color="#C757BC"/>
<stop offset="0.108" stop-color="#C757BC"/>
<stop offset="0.173" stop-color="#CD5CA9"/>
<stop offset="0.492" stop-color="#E8744F"/>
<stop offset="0.716" stop-color="#F88316"/>
<stop offset="0.823" stop-color="#FF8900"/>
<stop offset="1" stop-color="#FF8900"/>
</linearGradient>
<linearGradient id="paint1_linear_1004_613" x1="22.8528" y1="80.7038" x2="53.8701" y2="49.6864" gradientUnits="userSpaceOnUse">
<stop stop-color="#00AFFF"/>
<stop offset="0.296" stop-color="#00AFFF"/>
<stop offset="0.694" stop-color="#5282FF"/>
<stop offset="1" stop-color="#945DFF"/>
</linearGradient>
<linearGradient id="paint2_linear_1004_613" x1="0.0404888" y1="18.8991" x2="21.7995" y2="-2.86053" gradientUnits="userSpaceOnUse">
<stop stop-color="#00AFFF"/>
<stop offset="0.296" stop-color="#00AFFF"/>
<stop offset="0.694" stop-color="#5282FF"/>
<stop offset="1" stop-color="#945DFF"/>
</linearGradient>
<linearGradient id="paint3_linear_1004_613" x1="-11.0618" y1="62.8763" x2="52.5742" y2="-0.759765" gradientUnits="userSpaceOnUse">
<stop stop-color="#AD4CA4"/>
<stop offset="0.108" stop-color="#AD4CA4"/>
<stop offset="0.173" stop-color="#B25093"/>
<stop offset="0.492" stop-color="#CA6545"/>
<stop offset="0.716" stop-color="#D87213"/>
<stop offset="0.823" stop-color="#DE7700"/>
<stop offset="1" stop-color="#DE7700"/>
</linearGradient>
<linearGradient id="paint4_linear_1004_613" x1="22.8528" y1="80.7032" x2="53.8701" y2="49.6859" gradientUnits="userSpaceOnUse">
<stop stop-color="#0098DE"/>
<stop offset="0.296" stop-color="#0098DE"/>
<stop offset="0.694" stop-color="#4771DE"/>
<stop offset="1" stop-color="#8151DE"/>
</linearGradient>
<linearGradient id="paint5_linear_1004_613" x1="8.59201" y1="27.4502" x2="30.351" y2="5.69055" gradientUnits="userSpaceOnUse">
<stop stop-color="#0098DE"/>
<stop offset="0.296" stop-color="#0098DE"/>
<stop offset="0.694" stop-color="#4771DE"/>
<stop offset="1" stop-color="#8151DE"/>
</linearGradient>
<clipPath id="clip0_1004_613">
<rect width="68.3852" height="68.3852" fill="white" transform="translate(0.761719)"/>
</clipPath>
</defs>
</svg>
