<svg width="1874" height="1528" viewBox="0 0 1874 1528" fill="none" xmlns="http://www.w3.org/2000/svg">
<g opacity="0.1">
<path d="M1293.09 1976.02C1287 1981.61 1277.75 1982.65 1271.15 1977.67L1243.78 1956.98C1234.34 1949.84 1232.91 1936.14 1241.55 1928.04C1285.69 1887 1338.61 1872.6 1385.29 1859.88C1429.15 1847.94 1467.01 1837.62 1497.98 1808.85C1528.93 1780.05 1540.03 1744.86 1552.88 1704.08C1566.56 1660.69 1582.06 1611.5 1626.2 1570.46C1670.34 1529.42 1723.26 1515.02 1769.94 1502.32C1813.8 1490.38 1851.66 1480.06 1882.63 1451.29C1913.61 1422.5 1924.71 1387.28 1937.55 1346.53C1951.23 1303.13 1966.73 1253.94 2010.85 1212.9C2019.96 1204.4 2034.14 1205.98 2042.33 1215.37L2064.01 1240.19C2069.26 1246.21 2068.23 1255.34 2062.42 1260.82C2031.42 1289.63 2020.34 1324.83 2007.5 1365.6C1993.82 1409 1978.32 1458.19 1934.18 1499.23C1890.03 1540.26 1837.12 1554.67 1790.44 1567.39C1746.57 1579.33 1708.71 1589.65 1677.77 1618.42C1646.79 1647.21 1635.69 1682.43 1622.85 1723.18C1609.17 1766.58 1593.67 1815.77 1549.53 1856.81C1505.38 1897.84 1452.47 1912.25 1405.79 1924.97C1361.92 1936.91 1324.06 1947.21 1293.09 1976.02Z" fill="#8D92EE"/>
<path d="M1117.96 1969.01C1116.97 1972.18 1113.65 1974 1110.44 1973.13L1051.97 1957.16C1048.85 1956.31 1047.07 1953.04 1048.03 1949.95C1061.69 1906.56 1077.21 1857.34 1121.36 1816.31C1165.5 1775.27 1218.41 1760.87 1265.09 1748.17C1308.93 1736.23 1346.82 1725.91 1377.79 1697.12C1408.76 1668.32 1419.86 1633.13 1432.71 1592.35C1446.37 1548.94 1461.89 1499.74 1506.01 1458.73C1550.15 1417.69 1603.06 1403.29 1649.74 1390.59C1693.61 1378.65 1731.47 1368.33 1762.44 1339.54C1793.41 1310.77 1804.51 1275.55 1817.33 1234.77C1831.02 1191.38 1846.51 1142.19 1890.66 1101.15C1934.8 1060.11 1987.72 1045.71 2034.4 1033.01C2037.79 1032.08 2041.31 1034 2042.37 1037.35L2059.11 1090.25C2060.16 1093.58 2058.24 1097.11 2054.87 1098.04C2011.01 1109.98 1973.15 1120.3 1942.18 1149.07C1911.2 1177.86 1900.1 1213.05 1887.26 1253.83C1873.58 1297.22 1858.08 1346.42 1813.96 1387.45C1769.82 1428.49 1716.9 1442.89 1670.22 1455.61C1626.36 1467.56 1588.5 1477.87 1557.53 1506.64C1526.55 1535.44 1515.45 1570.63 1502.61 1611.41C1488.93 1654.8 1473.43 1703.99 1429.31 1745.03C1385.17 1786.07 1332.25 1800.47 1285.57 1813.17C1241.73 1825.11 1203.85 1835.43 1172.87 1864.22C1141.9 1893.02 1130.8 1928.23 1117.96 1969.01Z" fill="#8D92EE"/>
<path d="M948.454 1964.44C937.29 1979.07 916.131 1979.21 902.473 1966.87C887.332 1953.19 887.337 1929.53 897.953 1912.1C911.628 1889.65 919.579 1864.42 927.844 1838.2C941.526 1794.81 957.024 1745.61 1001.14 1704.58C1045.29 1663.54 1098.2 1649.13 1144.91 1636.42C1188.75 1624.47 1226.63 1614.18 1257.58 1585.36C1288.55 1556.57 1299.65 1521.38 1312.49 1480.62C1326.15 1437.2 1341.68 1388.01 1385.79 1346.98C1429.94 1305.94 1482.85 1291.56 1529.53 1278.84C1573.37 1266.9 1611.26 1256.6 1642.23 1227.78C1673.2 1199.01 1684.28 1163.8 1697.12 1123.04C1710.81 1079.63 1726.3 1030.43 1770.45 989.398C1814.59 948.362 1867.5 933.955 1914.18 921.257C1944.47 913.012 1973.51 905.102 1998.93 890.592C2014.89 881.487 2035.62 881.438 2048.89 894.134C2063.61 908.21 2063.33 932.052 2046.1 942.917C2009.79 965.82 1970.38 976.563 1934.66 986.283C1890.8 998.224 1852.94 1008.54 1821.96 1037.34C1790.99 1066.13 1779.89 1101.32 1767.05 1142.1C1753.37 1185.49 1737.87 1234.68 1693.73 1275.72C1649.58 1316.76 1596.67 1331.16 1549.99 1343.88C1506.15 1355.82 1468.26 1366.14 1437.29 1394.94C1406.32 1423.73 1395.24 1458.92 1382.37 1499.68C1368.71 1543.09 1353.19 1592.29 1309.07 1633.32C1264.93 1674.36 1212.02 1688.76 1165.34 1701.46C1121.5 1713.4 1083.61 1723.72 1052.64 1752.51C1021.67 1781.31 1010.57 1816.5 997.723 1857.28C986.949 1891.62 974.964 1929.69 948.454 1964.44Z" fill="#8D92EE"/>
<path d="M583.817 1973.58C567.488 1981.82 546.859 1980.47 534.489 1966.99C520.79 1952.07 522.596 1928.45 540.3 1918.6C572.728 1900.58 606.81 1891.29 640.047 1882.24C683.888 1870.3 721.771 1859.98 752.743 1831.19C783.692 1802.4 794.792 1767.2 807.637 1726.43C821.319 1683.03 836.817 1633.84 880.96 1592.81C925.103 1551.77 978.019 1537.36 1024.7 1524.66C1068.56 1512.72 1106.42 1502.41 1137.39 1473.63C1168.37 1444.84 1179.47 1409.63 1192.31 1368.87C1205.99 1325.48 1221.49 1276.28 1265.61 1235.25C1309.75 1194.21 1362.67 1179.81 1409.35 1167.09C1453.21 1155.14 1491.07 1144.83 1522.04 1116.06C1553.02 1087.26 1564.09 1052.07 1576.94 1011.29C1590.6 967.897 1606.12 918.684 1650.26 877.67C1694.4 836.633 1747.32 822.226 1794 809.528C1837.86 797.587 1875.72 787.269 1906.7 758.476C1937.67 729.706 1948.77 694.489 1961.61 653.712C1971.69 621.748 1982.03 588.916 2002.8 557.823C2013.08 542.43 2034.3 540.925 2048.8 552.434C2064.84 565.172 2066.46 588.916 2056.77 606.968C2045.89 627.252 2038.84 649.588 2031.54 672.77C2017.88 716.164 2002.36 765.355 1958.22 806.392C1914.07 847.428 1861.16 861.835 1814.48 874.554C1770.61 886.495 1732.75 896.814 1701.78 925.585C1670.81 954.377 1659.73 989.573 1646.89 1030.35C1633.23 1073.74 1617.71 1122.96 1573.56 1163.97C1529.42 1205.01 1476.51 1219.39 1429.83 1232.11C1385.96 1244.05 1348.1 1254.37 1317.13 1283.16C1286.16 1311.93 1275.08 1347.15 1262.24 1387.91C1248.55 1431.3 1233.06 1480.49 1188.91 1521.53C1144.77 1562.56 1091.86 1576.97 1045.18 1589.69C1001.34 1601.63 963.452 1611.95 932.503 1640.72C901.53 1669.51 890.431 1704.71 877.586 1745.49C863.903 1788.88 848.406 1838.07 804.286 1879.11C760.143 1920.14 707.227 1934.55 660.548 1947.27C633.331 1954.67 607.187 1961.78 583.817 1973.58Z" fill="#8D92EE"/>
<path d="M389.882 1942.35C382.231 1960.21 363.161 1970.82 344.463 1965.55C324.657 1959.97 313.121 1938.88 321.033 1919.88C332.441 1892.5 348.655 1864.14 376.064 1838.66C420.207 1797.62 473.123 1783.21 519.802 1770.52C563.666 1758.57 601.526 1748.26 632.498 1719.46C663.47 1690.67 674.57 1655.48 687.415 1614.7C701.098 1571.28 716.595 1522.09 760.738 1481.08C804.881 1440.04 857.796 1425.63 904.476 1412.91C948.316 1400.97 986.2 1390.68 1017.17 1361.88C1048.14 1333.09 1059.24 1297.9 1072.07 1257.12C1085.75 1213.7 1101.25 1164.51 1145.39 1123.5C1189.53 1082.46 1242.45 1068.06 1289.13 1055.34C1332.99 1043.39 1370.85 1033.1 1401.82 1004.31C1432.79 975.513 1443.87 940.318 1456.74 899.541C1470.4 856.147 1485.92 806.956 1530.06 765.919C1574.21 724.883 1627.12 710.476 1673.8 697.757C1717.66 685.816 1755.52 675.519 1786.5 646.726C1817.47 617.934 1828.55 582.739 1841.39 541.984C1855.07 498.568 1870.57 449.376 1914.71 408.34C1944.25 380.882 1977.39 365.51 2008.93 354.792C2026.23 348.91 2044.69 358.945 2050.35 376.324C2056.36 394.734 2045.7 414.075 2027.51 420.711C2005.7 428.665 1984.48 439.321 1966.26 456.277C1935.28 485.069 1924.19 520.287 1911.34 561.042C1897.66 604.457 1882.16 653.649 1838.04 694.685C1793.9 735.721 1740.98 750.106 1694.3 762.826C1650.44 774.767 1612.58 785.064 1581.61 813.878C1550.63 842.67 1539.53 877.866 1526.69 918.642C1513.01 962.036 1497.51 1011.23 1453.37 1052.26C1409.22 1093.3 1356.31 1107.71 1309.63 1120.43C1265.79 1132.37 1227.9 1142.66 1196.93 1171.46C1165.98 1200.23 1154.88 1235.44 1142.04 1276.22C1128.36 1319.62 1112.86 1368.81 1068.74 1409.84C1024.6 1450.88 971.679 1465.29 925 1478.01C881.16 1489.95 843.276 1500.24 812.304 1529.04C781.332 1557.83 770.232 1593.02 757.387 1633.8C743.704 1677.19 728.207 1726.39 684.087 1767.42C639.944 1808.46 587.028 1822.86 540.349 1835.56C496.485 1847.5 458.625 1857.8 427.653 1886.59C409.762 1903.2 398.391 1922.49 389.882 1942.35Z" fill="#8D92EE"/>
<path d="M222.755 1956.33C213.93 1972.81 192.813 1976.55 177.075 1966.46C159.749 1955.34 155.543 1931.76 163.92 1912.95C171.278 1896.44 176.839 1878.78 182.577 1860.53C196.236 1817.13 211.757 1767.94 255.877 1726.9C300.02 1685.87 352.936 1671.46 399.615 1658.76C443.479 1646.82 481.339 1636.5 512.311 1607.71C543.284 1578.94 554.383 1543.72 567.205 1502.95C580.887 1459.55 596.385 1410.36 640.505 1369.33C684.648 1328.29 737.563 1313.88 784.243 1301.16C828.107 1289.22 865.966 1278.9 896.939 1250.13C927.911 1221.36 939.011 1186.14 951.832 1145.37C965.515 1101.97 981.013 1052.78 1025.16 1011.75C1069.3 970.71 1122.21 956.325 1168.89 943.605C1212.76 931.664 1250.62 921.346 1281.59 892.575C1312.56 863.783 1323.66 828.587 1336.51 787.811C1350.19 744.417 1365.69 695.225 1409.81 654.189C1453.95 613.153 1506.87 598.746 1553.54 586.048C1597.39 574.107 1635.27 563.789 1666.24 534.996C1697.21 506.204 1708.31 471.008 1721.16 430.232C1734.82 386.838 1750.34 337.646 1794.46 296.61C1838.6 255.574 1891.52 241.167 1938.2 228.469C1960.33 222.439 1981.66 216.628 2001.33 208.398C2018.14 201.364 2038.47 204.913 2049.33 219.547C2061.29 235.665 2057.1 258.687 2038.81 266.942C2012.31 278.898 1985.19 286.283 1958.7 293.495C1914.86 305.436 1876.97 315.755 1846 344.547C1815.03 373.339 1803.95 408.535 1791.08 449.311C1777.42 492.705 1761.9 541.897 1717.78 582.933C1673.64 623.969 1620.72 638.376 1574.05 651.074C1530.2 663.015 1492.32 673.334 1461.35 702.126C1430.38 730.897 1419.28 766.114 1406.46 806.89C1392.77 850.284 1377.28 899.476 1333.13 940.512C1288.99 981.548 1236.07 995.955 1189.39 1008.65C1145.53 1020.59 1107.67 1030.91 1076.7 1059.68C1045.73 1088.48 1034.63 1123.67 1021.78 1164.45C1008.1 1207.86 992.601 1257.05 948.482 1298.07C904.339 1339.11 851.423 1353.51 804.744 1366.21C760.88 1378.15 723.02 1388.47 692.048 1417.26C661.076 1446.05 649.976 1481.25 637.154 1522.03C623.471 1565.42 607.974 1614.61 563.854 1655.65C519.711 1696.68 466.795 1711.09 420.116 1723.81C376.252 1735.75 338.392 1746.07 307.42 1774.84C276.448 1803.63 265.371 1838.83 252.503 1879.61C244.522 1904.97 236.331 1930.97 222.755 1956.33Z" fill="#8D92EE"/>
<path d="M-84.609 1969.59C-101.075 1974.05 -118.407 1965.11 -123.991 1948.99L-125.758 1943.89C-131.528 1927.24 -122.234 1909.22 -105.226 1904.59C-61.3627 1892.67 -23.5028 1882.35 7.46944 1853.56C38.4416 1824.77 49.5416 1789.57 62.3866 1748.8C76.046 1705.38 91.567 1656.19 135.687 1615.17C179.83 1574.14 232.745 1559.73 279.448 1547.01C323.288 1535.09 361.172 1524.77 392.144 1495.98C423.093 1467.19 434.193 1431.99 447.038 1391.22C460.72 1347.8 476.218 1298.61 520.361 1257.6C564.481 1216.56 617.396 1202.15 664.099 1189.45C707.939 1177.51 745.823 1167.19 776.795 1138.42C807.767 1109.63 818.866 1074.41 831.711 1033.66C845.394 990.265 860.892 941.074 905.035 900.038C949.178 859.001 1002.09 844.594 1048.77 831.875C1092.64 819.934 1130.5 809.615 1161.47 780.845C1192.42 752.052 1203.52 716.835 1216.36 676.08C1230.05 632.665 1245.54 583.473 1289.69 542.459C1333.83 501.422 1386.74 487.015 1433.42 474.296C1477.26 462.355 1515.15 452.036 1546.12 423.266C1577.09 394.473 1588.19 359.256 1601.04 318.501C1614.7 275.086 1630.22 225.894 1674.34 184.88C1718.48 143.843 1771.4 129.436 1818.07 116.717C1861.92 104.776 1899.8 94.4789 1930.77 65.6649C1961.74 36.8725 1972.82 1.67707 1985.69 -39.0779C1990.76 -55.2934 2007.95 -64.1468 2024.22 -59.2693L2037.08 -55.4142C2052.01 -50.9413 2060.3 -34.9026 2055.61 -20.0416C2041.95 23.3525 2026.43 72.5439 1982.31 113.58C1938.17 154.616 1885.26 169.023 1838.58 181.743C1794.71 193.684 1756.85 203.981 1725.88 232.773C1694.91 261.565 1683.83 296.761 1670.99 337.537C1657.3 380.931 1641.81 430.123 1597.69 471.159C1553.54 512.195 1500.63 526.602 1453.95 539.3C1410.11 551.241 1372.22 561.538 1341.25 590.352C1310.28 619.144 1299.18 654.34 1286.36 695.116C1272.68 738.51 1257.18 787.702 1213.06 828.738C1168.92 869.774 1116 884.181 1069.32 896.901C1025.46 908.842 987.597 919.139 956.624 947.931C925.652 976.724 914.576 1011.92 901.731 1052.7C888.048 1096.09 872.55 1145.28 828.407 1186.32C784.264 1227.35 731.349 1241.76 684.669 1254.48C640.829 1266.42 602.946 1276.74 571.997 1305.51C541.024 1334.3 529.924 1369.5 517.08 1410.27C503.397 1453.67 487.899 1502.86 443.779 1543.9C399.637 1584.93 346.721 1599.32 300.041 1612.04C256.201 1623.98 218.318 1634.3 187.346 1663.07C156.373 1691.86 145.297 1727.06 132.452 1767.83C118.769 1811.23 103.272 1860.42 59.129 1901.45C14.9861 1942.49 -37.9297 1956.88 -84.609 1969.59Z" fill="#8D92EE"/>
<path d="M-79.4491 1804.91C-94.0446 1815.77 -114.264 1810.31 -123.98 1794.93C-134.616 1778.09 -128.38 1756.1 -113.691 1742.65C-113.378 1742.36 -113.066 1742.08 -112.755 1741.79C-81.7833 1712.99 -70.6833 1677.8 -57.8383 1637.02C-44.1557 1593.63 -28.6579 1544.44 15.485 1503.4C59.628 1462.36 112.543 1447.96 159.222 1435.26C203.086 1423.32 240.947 1413 271.919 1384.21C302.891 1355.41 313.967 1320.22 326.812 1279.44C340.495 1236.05 355.993 1186.86 400.112 1145.82C444.255 1104.79 497.171 1090.4 543.85 1077.68C587.691 1065.74 625.574 1055.44 656.547 1026.65C687.519 997.857 698.595 962.662 711.44 921.885C725.123 878.491 740.62 829.3 784.74 788.264C828.883 747.227 881.799 732.82 928.478 720.122C972.318 708.181 1010.2 697.885 1041.17 669.092C1072.15 640.3 1083.25 605.083 1096.09 564.328C1109.77 520.934 1125.27 471.742 1169.39 430.706C1213.53 389.67 1266.45 375.263 1313.13 362.543C1356.99 350.602 1394.85 340.284 1425.82 311.513C1456.8 282.721 1467.9 247.504 1480.74 206.749C1494.42 163.355 1509.92 114.163 1554.04 73.1272C1598.18 32.0911 1651.1 17.6841 1697.78 4.96438C1741.62 -6.97655 1779.5 -17.2951 1810.48 -46.0658C1811.42 -46.9406 1812.34 -47.8249 1813.26 -48.719C1826.71 -61.9093 1847.07 -67.7296 1863.61 -58.7024C1881.73 -48.8115 1887.94 -25.3903 1873.98 -10.1751C1870.19 -6.03832 1866.22 -2.03815 1862.04 1.84935C1817.9 42.8855 1764.98 57.2925 1718.28 70.0122C1674.44 81.9531 1636.56 92.2716 1605.58 121.042C1574.64 149.835 1563.54 185.03 1550.69 225.807C1537.01 269.201 1521.51 318.392 1477.37 359.428C1433.25 400.465 1380.33 414.872 1333.63 427.57C1289.77 439.51 1251.91 449.829 1220.93 478.6C1189.96 507.392 1178.86 542.609 1166.02 583.364C1152.36 626.758 1136.84 675.95 1092.72 716.986C1048.57 758.022 995.658 772.429 948.956 785.149C905.115 797.089 867.232 807.408 836.26 836.2C805.288 864.993 794.211 900.188 781.366 940.965C767.683 984.38 752.185 1033.57 708.066 1074.59C663.923 1115.62 611.007 1130.03 564.305 1142.75C520.464 1154.69 482.581 1165.01 451.632 1193.78C420.66 1222.57 409.56 1257.77 396.715 1298.54C383.055 1341.94 367.534 1391.13 323.392 1432.17C279.249 1473.2 226.333 1487.61 179.654 1500.31C135.813 1512.25 97.9299 1522.57 66.9577 1551.36C35.9855 1580.15 24.9088 1615.35 12.0639 1656.12C-1.59555 1699.54 -17.1166 1748.73 -61.2595 1789.74C-67.0482 1795.14 -73.0893 1800.18 -79.4491 1804.91Z" fill="#8D92EE"/>
<path d="M-75.326 1465.75C-85.8907 1481.81 -105.417 1490.93 -123.471 1484.33C-142.837 1477.25 -152.647 1455.17 -141.973 1437.53C-131.48 1420.19 -119.275 1405.21 -104.734 1391.69C-60.5906 1350.66 -7.6749 1336.25 39.0045 1323.55C82.8449 1311.61 120.728 1301.29 151.7 1272.52C182.672 1243.73 193.749 1208.53 206.594 1167.76C220.254 1124.34 235.775 1075.15 279.917 1034.13C324.06 993.099 376.976 978.692 423.656 965.972C467.519 954.031 505.379 943.712 536.351 914.942C567.3 886.149 578.4 850.954 591.245 810.177C604.928 766.783 620.426 717.592 664.568 676.556C708.711 635.52 761.627 621.112 808.307 608.414C852.17 596.474 890.03 586.155 921.002 557.384C951.974 528.592 963.074 493.375 975.919 452.62C989.602 409.226 1005.1 360.034 1049.22 318.998C1093.36 277.962 1146.28 263.555 1192.96 250.835C1236.82 238.895 1274.68 228.576 1305.65 199.805C1336.63 171.013 1347.72 135.817 1360.55 95.0408C1374.23 51.6468 1389.73 2.45535 1433.85 -38.5808C1450.01 -53.6091 1468.13 -65.959 1489.56 -76.4284C1505.92 -84.4285 1525.08 -75.917 1532.19 -59.1392C1539.81 -41.1396 1530.5 -20.8962 1513.51 -11.2326C1502.98 -5.24081 1493.82 1.48656 1485.39 9.33438C1454.42 38.1051 1443.32 73.3222 1430.5 114.099C1416.81 157.493 1401.32 206.684 1357.2 247.72C1313.05 288.757 1260.14 303.164 1213.46 315.883C1169.59 327.824 1131.73 338.143 1100.76 366.913C1069.79 395.706 1058.71 430.901 1045.87 471.678C1032.19 515.072 1016.69 564.263 972.545 605.299C928.402 646.336 875.486 660.743 828.807 673.441C784.943 685.382 747.083 695.7 716.111 724.471C685.139 753.263 674.039 788.48 661.194 829.235C647.512 872.629 632.014 921.821 587.894 962.857C543.751 1003.89 490.836 1018.3 444.156 1031.02C400.293 1042.96 362.432 1053.26 331.46 1082.07C300.488 1110.86 289.388 1146.06 276.543 1186.84C262.861 1230.23 247.363 1279.42 203.243 1320.46C159.1 1361.49 106.185 1375.9 59.5054 1388.6C15.6649 1400.54 -22.2183 1410.86 -53.1905 1439.63C-61.6389 1447.45 -68.8802 1455.96 -75.326 1465.75Z" fill="#8D92EE"/>
<path d="M-80.8988 1282.37C-98.4254 1287.38 -117.447 1279.02 -124.508 1262.21C-132.085 1244.19 -123.006 1223.53 -104.21 1218.13C-96.468 1215.91 -88.7838 1213.82 -81.2108 1211.76C-37.3704 1199.81 0.512772 1189.52 31.4617 1160.73C62.4339 1131.93 73.5339 1096.74 86.3788 1055.96C100.062 1012.57 115.559 963.375 159.679 922.339C203.822 881.303 256.738 866.896 303.417 854.176C347.257 842.235 385.141 831.939 416.113 803.125C447.085 774.332 458.184 739.137 471.029 698.36C484.712 654.966 500.21 605.775 544.329 564.739C588.472 523.702 641.388 509.317 688.067 496.597C731.931 484.656 769.792 474.359 800.764 445.546C831.736 416.775 842.812 381.558 855.657 340.803C869.34 297.409 884.838 248.217 928.98 207.181C973.123 166.145 1026.04 151.738 1072.72 139.018C1116.56 127.077 1154.44 116.78 1185.39 87.9881C1216.36 59.1957 1227.46 24.0002 1240.31 -16.7763C1242.49 -23.6986 1244.7 -30.7136 1247.04 -37.7789C1253.1 -56.0325 1273.14 -64.8196 1291.22 -58.2594C1310.61 -51.2236 1320.36 -29.3044 1314.05 -9.66763C1312.79 -5.74259 1311.53 -1.76775 1310.26 2.25995C1296.6 45.6756 1281.08 94.8671 1236.96 135.903C1192.81 176.939 1139.9 191.346 1093.22 204.044C1049.36 215.985 1011.5 226.304 980.524 255.075C949.551 283.867 938.475 319.084 925.606 359.839C911.924 403.233 896.426 452.424 852.306 493.461C808.163 534.497 755.248 548.904 708.568 561.624C664.705 573.564 626.845 583.861 595.872 612.654C564.9 641.446 553.824 676.641 540.979 717.418C527.296 760.834 511.798 810.025 467.655 851.04C423.512 892.076 370.597 906.483 323.917 919.203C280.077 931.143 242.194 941.44 211.221 970.254C180.249 999.047 169.173 1034.24 156.328 1075C142.645 1118.41 127.147 1167.6 83.0042 1208.64C38.8613 1249.66 -14.0539 1264.06 -60.7332 1276.78C-67.5906 1278.66 -74.3085 1280.49 -80.8988 1282.37Z" fill="#8D92EE"/>
<path d="M-81.1671 1128.64C-97.0903 1137.47 -116.561 1129.73 -124.36 1113.28C-132.774 1095.53 -124.207 1074.82 -107.815 1063.99C-100.927 1059.45 -94.6142 1054.48 -88.6947 1048.97C-57.7225 1020.18 -46.6231 984.987 -33.7781 944.21C-20.0954 900.816 -4.5977 851.625 39.522 810.589C83.6649 769.553 136.581 755.146 183.26 742.426C227.1 730.485 264.984 720.167 295.956 691.396C326.928 662.603 338.028 627.386 350.873 586.631C364.532 543.216 380.053 494.024 424.173 453.01C468.316 411.974 521.232 397.567 567.911 384.869C611.752 372.928 649.635 362.609 680.607 333.838C711.556 305.046 722.656 269.851 735.501 229.074C749.183 185.68 764.681 136.488 808.824 95.4523C852.967 54.4162 905.883 40.0092 952.562 27.3111C996.426 15.3702 1034.29 5.05169 1065.26 -23.7407C1071.34 -29.3945 1076.82 -35.4397 1081.83 -42.0604C1093.37 -57.3149 1113.16 -65.6045 1130.86 -58.3479C1149.96 -50.5205 1158.85 -28.0292 1147.17 -11.0189C1138.27 1.9408 1128.21 13.6028 1116.82 24.1961C1072.68 65.2323 1019.77 79.6393 973.086 92.3373C929.245 104.278 891.362 114.597 860.39 143.389C829.418 172.182 818.318 207.377 805.473 248.154C791.791 291.548 776.293 340.739 732.173 381.775C688.03 422.811 635.115 437.218 588.435 449.938C544.595 461.879 506.711 472.197 475.739 500.968C444.767 529.76 433.691 564.956 420.846 605.732C407.163 649.127 391.665 698.318 347.522 739.354C303.379 780.39 250.464 794.797 203.784 807.495C159.921 819.436 122.061 829.755 91.0884 858.547C60.1162 887.34 49.0395 922.535 36.1945 963.312C22.5119 1006.71 7.0141 1055.9 -37.1288 1096.93C-50.1973 1109.04 -64.7516 1119.53 -81.1671 1128.64Z" fill="#8D92EE"/>
<path d="M-84.0468 851.56C-87.5202 862.48 -99.0135 868.613 -110.034 865.473L-141.081 856.626C-151.394 853.688 -157.231 842.727 -153.996 832.502C-140.314 789.086 -124.816 739.895 -80.6728 698.859C-36.5299 657.823 16.3858 643.437 63.0652 630.718C106.929 618.777 144.789 608.48 175.761 579.687C206.733 550.895 217.81 515.678 230.678 474.923C244.361 431.529 259.859 382.337 303.978 341.301C348.121 300.265 401.037 285.858 447.716 273.16C491.557 261.219 529.44 250.901 560.412 222.108C591.384 193.316 602.46 158.121 615.305 117.366C628.988 73.9499 644.486 24.7584 688.629 -16.2777C732.772 -57.3139 785.687 -71.6992 832.367 -84.4189C843.652 -87.4682 855.436 -81.2216 859.097 -70.1194L867.069 -45.9403C870.798 -34.6315 864.352 -22.539 852.868 -19.3927C809.027 -7.45181 771.144 2.84509 740.172 31.6375C709.2 60.4298 698.123 95.6253 685.278 136.402C671.595 179.796 656.098 228.987 611.955 270.023C567.812 311.06 514.896 325.467 468.217 338.165C424.353 350.106 386.493 360.424 355.521 389.217C324.549 417.987 313.472 453.204 300.627 493.959C286.944 537.375 271.446 586.566 227.304 627.603C183.161 668.639 130.245 683.046 83.5661 695.765C39.7257 707.706 1.8419 718.003 -29.1303 746.796C-60.1025 775.588 -71.2019 810.805 -84.0468 851.56Z" fill="#8D92EE"/>
<path d="M-78.5072 596.157C-95.7857 601.862 -115.466 595.505 -124.18 579.531C-133.648 562.177 -126.53 540.387 -107.833 533.966C-90.8286 528.125 -73.8166 523.491 -57.1404 518.943C-13.2767 507.002 24.5838 496.684 55.556 467.913C86.5282 439.121 97.6043 403.925 110.449 363.149C124.132 319.754 139.63 270.563 183.749 229.527C227.892 188.491 280.808 174.084 327.487 161.386C371.351 149.445 409.212 139.126 440.184 110.356C471.156 81.5632 482.255 46.3461 495.1 5.59116C500.061 -10.1715 505.125 -26.257 511.561 -42.3301C518.622 -59.9634 539.272 -66.6331 556.453 -58.5331C575.13 -49.7272 582.631 -26.8978 575.641 -7.46728C571.913 2.89674 568.535 13.6175 565.073 24.6274C551.414 68.0431 535.893 117.235 491.75 158.271C447.607 199.307 394.691 213.714 348.012 226.434C304.171 238.374 266.288 248.693 235.316 277.464C204.367 306.234 193.267 341.452 180.422 382.228C166.739 425.622 151.242 474.814 107.122 515.85C62.9789 556.886 10.0632 571.293 -36.6395 584.013C-51.0985 587.929 -65.1013 591.73 -78.5072 596.157Z" fill="#8D92EE"/>
<path d="M-82.5424 448.231C-99.3331 455.371 -118.179 446.097 -124.61 429.022C-131.468 410.814 -121.509 390.988 -103.965 382.576C-88.4496 375.136 -75.9267 366.651 -64.6672 356.184C-33.695 327.392 -22.5951 292.196 -9.75009 251.42C3.90932 208.004 19.4303 158.834 63.55 117.798C107.693 76.7621 160.609 62.3551 207.311 49.6354C251.152 37.6945 289.035 27.3976 319.984 -1.39479C331.115 -11.7427 340.163 -23.2385 348.1 -37.4405C357.523 -54.3018 376.845 -64.1359 395.213 -58.1574C414.799 -51.7823 425.476 -30.131 415.883 -11.9035C405.851 7.16088 391.952 27.4981 371.527 46.4987C327.384 87.5349 274.468 101.92 227.789 114.64C183.925 126.581 146.065 136.878 115.093 165.67C84.1203 194.462 73.021 229.658 60.176 270.435C46.4933 313.829 30.9956 363.02 -13.1241 404.056C-35.7817 425.134 -60.1931 438.727 -82.5424 448.231Z" fill="#8D92EE"/>
<path d="M-78.2054 210.864C-85.4817 228.368 -106.222 234.651 -123.225 226.27C-141.732 217.149 -148.803 194.203 -141.654 174.848C-137.471 163.527 -133.763 151.77 -129.957 139.69C-116.298 96.2958 -100.777 47.1043 -56.6569 6.06817C-12.514 -34.968 40.4012 -49.375 87.1038 -62.0947C102.7 -66.3411 117.801 -70.4562 132.189 -75.3595C149.404 -81.2264 169.176 -75.2354 178.186 -59.4365C188.002 -42.2259 181.269 -20.243 162.603 -13.5999C144.17 -7.0397 125.683 -2.01496 107.581 2.90988C63.7177 14.8508 25.8578 25.1693 -5.11441 53.9617C-36.0866 82.754 -47.1633 117.95 -60.0082 158.726C-65.4241 175.869 -70.9423 193.392 -78.2054 210.864Z" fill="#8D92EE"/>
</g>
</svg>
