<svg width="70" height="69" viewBox="0 0 70 69" fill="none" xmlns="http://www.w3.org/2000/svg">
<g opacity="0.4" clip-path="url(#clip0_1004_626)">
<path d="M16.0558 0H53.9348C55.778 0 57.5678 0.293843 59.3041 0.908241C61.8151 1.81648 64.0857 3.41926 65.7954 5.50287C67.5317 7.58648 68.6804 10.1509 69.0811 12.8222C69.2413 13.8106 69.2681 14.799 69.2681 15.7874V52.7314C69.2681 53.9068 69.2146 55.1089 68.9742 56.2575C68.44 58.9021 67.1844 61.3864 65.368 63.3899C63.5782 65.3934 61.2275 66.8893 58.6897 67.6907C57.1404 68.1715 55.5376 68.3852 53.9081 68.3852C53.1869 68.3852 15.949 68.3852 15.388 68.3585C12.6633 68.2249 9.96527 67.3434 7.69466 65.8208C5.47749 64.3248 3.661 62.2412 2.48563 59.8371C1.47054 57.7802 0.962995 55.4828 0.962995 53.1855V15.1997C0.909569 12.9291 1.3904 10.6852 2.37878 8.655C3.52744 6.25084 5.31721 4.14051 7.53439 2.64458C9.80499 1.09523 12.4763 0.186991 15.201 0.0534259C15.4681 0 15.762 0 16.0558 0Z" fill="url(#paint0_linear_1004_626)"/>
<path d="M58.5555 55.937C58.3151 55.563 58.048 55.189 57.7541 54.8417C57.0863 54.0403 56.3116 53.3458 55.4568 52.7581C54.3883 52.0369 53.1328 51.5828 51.8505 51.5293C50.9423 51.4759 50.0341 51.6362 49.1792 51.9567C48.3244 52.2506 47.4963 52.678 46.6949 53.1054C45.76 53.5862 44.825 54.0671 43.8366 54.4678C42.6613 54.9486 41.4325 55.3226 40.177 55.5897C38.6009 55.8835 36.9981 55.9904 35.4221 55.9637C32.5638 55.9103 29.7055 55.4828 26.9808 54.6815C24.5766 53.9602 22.2793 52.9718 20.1155 51.7163C18.2189 50.6211 16.4558 49.3656 14.7996 47.9498C13.4373 46.7744 12.1818 45.5189 11.0064 44.1833C10.205 43.2483 9.43033 42.2599 8.70908 41.2448C8.41524 40.8441 8.14811 40.4167 7.90769 39.9893L0.855469 32.3761V15.1463C0.855469 6.7851 7.61385 0 15.975 0H29.4651L39.4557 10.1509C62.0015 25.4842 54.7088 42.3935 54.7088 42.3935C54.7088 42.3935 61.1199 49.606 58.5555 55.937Z" fill="url(#paint1_linear_1004_626)"/>
<path d="M39.5097 10.1514C62.0554 25.4846 54.7628 42.3939 54.7628 42.3939C54.7628 42.3939 61.1739 49.6331 58.5827 55.9641C58.5827 55.9641 55.9381 51.5298 51.5038 51.5298C47.2297 51.5298 44.7187 55.9641 36.1171 55.9641C16.9639 55.9641 7.9082 39.963 7.9082 39.963C25.1648 51.3161 36.9452 43.2755 36.9452 43.2755C29.1717 38.761 12.6364 17.1769 12.6364 17.1769C27.0347 29.4381 33.2588 32.6704 33.2588 32.6704C29.5457 29.5984 19.1277 14.5857 19.1277 14.5857C27.4621 23.027 44.0241 34.8074 44.0241 34.8074C48.7256 21.7715 39.5097 10.1514 39.5097 10.1514Z" fill="white"/>
</g>
<defs>
<linearGradient id="paint0_linear_1004_626" x1="41.5376" y1="-2.44023" x2="28.6173" y2="70.8337" gradientUnits="userSpaceOnUse">
<stop stop-color="#FAAE42"/>
<stop offset="1" stop-color="#EF3E31"/>
</linearGradient>
<linearGradient id="paint1_linear_1004_626" x1="35.7458" y1="1.10485" x2="26.2897" y2="54.733" gradientUnits="userSpaceOnUse">
<stop stop-color="#E39F3A"/>
<stop offset="1" stop-color="#D33929"/>
</linearGradient>
<clipPath id="clip0_1004_626">
<rect width="68.3852" height="68.3852" fill="white" transform="translate(0.855469)"/>
</clipPath>
</defs>
</svg>
