<svg width="33" height="28" viewBox="0 0 33 28" fill="none" xmlns="http://www.w3.org/2000/svg">
<path d="M30.9436 4.65719C30.7764 4.45272 30.5636 4.3017 30.3294 4.21011C30.3757 4.08761 30.419 3.96302 30.4593 3.83635C30.6476 3.2447 30.4519 2.5982 29.9671 2.21029C29.4823 1.82238 28.8086 1.77324 28.2727 2.08669C27.5434 2.51318 26.7705 2.84119 25.9507 3.07066C24.6967 2.0302 23.195 1.5 21.5032 1.5C19.5839 1.5 17.9066 2.22102 16.5465 3.59977C15.3148 4.8484 14.649 6.37695 14.5573 8.11256C13.1442 7.86731 11.8044 7.41542 10.5322 6.75765C8.79001 5.83521 7.29716 4.60901 6.0451 3.07052C5.73548 2.69008 5.25942 2.48505 4.77027 2.52148C4.28111 2.55792 3.84068 2.83121 3.59084 3.25332C2.94753 4.34023 2.62901 5.53807 2.62901 6.81503C2.62901 7.81095 2.80464 8.7324 3.14869 9.5706C2.78397 9.85255 2.56629 10.2897 2.56629 10.7572V10.7572V10.7572V10.7572V10.7572V10.7572V10.7573V10.7573V10.7573V10.7573V10.7573V10.7573V10.7573V10.7573V10.7573V10.7573V10.7573V10.7573V10.7574V10.7574V10.7574V10.7574V10.7574V10.7574V10.7574V10.7574V10.7575V10.7575V10.7575V10.7575V10.7575V10.7575V10.7576V10.7576V10.7576V10.7576V10.7576V10.7577V10.7577V10.7577V10.7577V10.7577V10.7578V10.7578V10.7578V10.7578V10.7579V10.7579V10.7579V10.7579V10.758V10.758V10.758V10.758V10.7581V10.7581V10.7581V10.7582V10.7582V10.7582V10.7582V10.7583V10.7583V10.7583V10.7584V10.7584V10.7584V10.7585V10.7585V10.7586V10.7586V10.7586V10.7587V10.7587V10.7587V10.7588V10.7588V10.7589V10.7589V10.7589V10.759V10.759V10.7591V10.7591V10.7591V10.7592V10.7592V10.7593V10.7593V10.7594V10.7594V10.7595V10.7595V10.7596V10.7596V10.7597V10.7597V10.7597V10.7598V10.7598V10.7599V10.76V10.76V10.7601V10.7601V10.7602V10.7602V10.7603V10.7603V10.7604V10.7604V10.7605V10.7605V10.7606V10.7607V10.7607V10.7608V10.7608V10.7609V10.761V10.761V10.7611V10.7611V10.7612V10.7613V10.7613V10.7614V10.7615V10.7615V10.7616V10.7616V10.7617V10.7618V10.7618V10.7619V10.762V10.762V10.7621V10.7622V10.7623V10.7623V10.7624V10.7625V10.7625V10.7626V10.7627V10.7628V10.7628V10.7629V10.763V10.7631V10.7631V10.7632V10.7633V10.7634V10.7634V10.7635V10.7636V10.7637V10.7637V10.7638V10.7639V10.764V10.7641V10.7642V10.7642V10.7643V10.7644V10.7645V10.7646V10.7647V10.7647V10.7648V10.7649V10.765V10.7651V10.7652V10.7653V10.7653V10.7654V10.7655V10.7656V10.7657V10.7658V10.7659V10.766V10.7661V10.7662V10.7663V10.7664V10.7664V10.7665V10.7666V10.7667V10.7668V10.7669V10.767V10.7671V10.7672V10.7673V10.7674V10.7675V10.7676V10.7677V10.7678V10.7679V10.768V10.7681V10.7682V10.7683V10.7684V10.7685V10.7686V10.7688V10.7689V10.769V10.7691V10.7692V10.7693V10.7694V10.7695V10.7696V10.7697V10.7698V10.7699V10.7701V10.7702V10.7703V10.7704V10.7705V10.7706V10.7707V10.7708V10.771V10.7711V10.7712V10.7713V10.7714V10.7715V10.7717V10.7718V10.7719V10.772V10.7721V10.7723V10.7724V10.7725V10.7726V10.7728V10.7729V10.773V10.7731V10.7732V10.7734V10.7735V10.7736V10.7737V10.7739V10.774V10.7741V10.7743V10.7744V10.7745V10.7746V10.7748V10.7749V10.775V10.7752V10.7753V10.7754V10.7756V10.7757V10.7758V10.776V10.7761V10.7762V10.7764V10.7765V10.7767V10.7768V10.7769V10.7771V10.7772V10.7773V10.7775V10.7776V10.7778V10.7779V10.778V10.7782V10.7783V10.7785V10.7786V10.7788V10.7789V10.7791V10.7792V10.7793V10.7795V10.7796V10.7798V10.7799V10.7801V10.7802V10.7804V10.7805V10.7807V10.7808V10.781V10.7811V10.7813V10.7814V10.7816V10.7818V10.7819V10.7821V10.7822V10.7824V10.7825V10.7827V10.7828V10.783V10.7832V10.7833V10.7835V10.7836V10.7838V10.784V10.7841V10.7843V10.7844V10.7846V10.7848V10.7849V10.7851V10.7853V10.7854V10.7856V10.7858V10.7859V10.7861V10.7863V10.7864V10.7866V10.7868V10.7869V10.7871V10.7873V10.7874V10.7876V10.7878V10.788V10.7881V10.7883V10.7885V10.7887V10.7888V10.789V10.7892V10.7894V10.7895V10.7897V10.7899V10.7901V10.7903V10.7904V10.7906V10.7908V10.791V10.7912V10.7913V10.7915V10.7917V10.7919V10.7921V10.7922V10.7924V10.7926V10.7928V10.793V10.7932V10.7934V10.7936V10.7937V10.7939V10.7941V10.7943V10.7945V10.7947V10.7949V10.7951V10.7953V10.7955V10.7956V10.7958V10.796V10.7962V10.7964V10.7966V10.7968V10.797V10.7972V10.7974V10.7976V10.7978V10.798V10.7982V10.7984V10.7986V10.7988V10.799V10.7992V10.7994V10.7996V10.7998V10.8V10.8002V10.8004V10.8006V10.8008V10.801V10.8012V10.8014V10.8017V10.8019V10.8021V10.8023V10.8025V10.8027V10.8029V10.8031V10.8033V10.8035V10.8038V10.804V10.8042V10.8044V10.8046V10.8048V10.805V10.8053V10.8055V10.8057V10.8059V10.8061V10.8063V10.8066V10.8068V10.807V10.8072V10.8074V10.8077V10.8079V10.8081V10.8083V10.8085V10.8088V10.809V10.8092V10.8094V10.8097V10.8099V10.8101V10.8103V10.8106V10.8108V10.811V10.8113V10.8115V10.8117V10.812V10.8122V10.8124V10.8126V10.8129V10.8131V10.8133V10.8136V10.8138V10.814V10.8143V10.8145V10.8148V10.815V10.8152V10.8155V10.8157V10.8159V10.8162V10.8164V10.8167V10.8169V10.8171V10.8174V10.8176V10.8179V10.8181V10.8183V10.8186V10.8188V10.8191V10.8193V10.8196V10.8198V10.8201V10.8203V10.8206V10.8208C2.56629 12.4832 3.10559 13.9854 4.162 15.2705C4.30982 15.4503 4.46355 15.6211 4.62307 15.7829C4.49395 16.0975 4.47337 16.4523 4.57535 16.7883C5.00078 18.1899 5.8086 19.3598 6.96738 20.2675C6.97583 20.2742 6.98434 20.2807 6.99293 20.2871C7.13398 20.3928 7.27741 20.4928 7.42313 20.5869C6.44805 20.9189 5.41483 21.0838 4.31718 21.0838C3.90307 21.0838 3.51473 21.0647 3.15128 21.0279C2.46206 20.958 1.81464 21.3692 1.58489 22.0228C1.35514 22.6763 1.60284 23.4022 2.18418 23.779C4.97896 25.5903 8.06412 26.5 11.4048 26.5C14.0273 26.5 16.462 25.9946 18.6855 24.9615L18.6855 24.9615L18.698 24.9556C20.9122 23.902 22.7469 22.527 24.1595 20.8117C25.5607 19.1601 26.6311 17.3388 27.3615 15.3521C28.1285 13.3367 28.5191 11.2825 28.5228 9.19715C29.4832 8.3991 30.3173 7.48369 31.0213 6.45288C31.3966 5.90335 31.365 5.17226 30.9436 4.65719Z" stroke="#0D011E" stroke-width="3" stroke-linejoin="round"/>
</svg>
